<mxfile host="app.diagrams.net" modified="2024-05-06T18:00:07.944Z" agent="Mozilla/5.0 (Windows NT 10.0; Win64; x64) AppleWebKit/537.36 (KHTML, like Gecko) Chrome/123.0.0.0 Safari/537.36" etag="nr1k7I-nmJqRq_BAi3B0" version="24.3.1" type="github">
  <diagram name="Page-1" id="2a216829-ef6e-dabb-86c1-c78162f3ba2b">
    <mxGraphModel dx="1506" dy="804" grid="1" gridSize="10" guides="1" tooltips="1" connect="1" arrows="1" fold="1" page="1" pageScale="1" pageWidth="850" pageHeight="1100" background="none" math="0" shadow="0">
      <root>
        <mxCell id="0" />
        <mxCell id="1" parent="0" />
        <mxCell id="7a84cebc1def654-1" value="" style="shape=mxgraph.bpmn.shape;html=1;verticalLabelPosition=bottom;labelBackgroundColor=#ffffff;verticalAlign=top;perimeter=ellipsePerimeter;outline=standard;symbol=general;strokeColor=#00CC66;" parent="1" vertex="1">
          <mxGeometry x="95" y="315" width="50" height="50" as="geometry" />
        </mxCell>
        <mxCell id="7a84cebc1def654-2" value="&amp;nbsp;Task&amp;nbsp;&lt;div&gt;user&lt;/div&gt;" style="shape=ext;rounded=1;html=1;whiteSpace=wrap;" parent="1" vertex="1">
          <mxGeometry x="275" y="300" width="120" height="80" as="geometry" />
        </mxCell>
        <mxCell id="7a84cebc1def654-36" style="edgeStyle=orthogonalEdgeStyle;rounded=0;html=1;jettySize=auto;orthogonalLoop=1;" parent="1" edge="1">
          <mxGeometry relative="1" as="geometry">
            <mxPoint x="145" y="340" as="sourcePoint" />
            <mxPoint x="265" y="340" as="targetPoint" />
          </mxGeometry>
        </mxCell>
        <mxCell id="Ga-tQYQYkvQy9JPtYiHi-1" value="Установленное время для&amp;nbsp;&lt;div&gt;составления программы обучения&amp;nbsp;&lt;/div&gt;&lt;div&gt;на следующий год&lt;/div&gt;" style="text;html=1;align=center;verticalAlign=middle;resizable=0;points=[];autosize=1;strokeColor=none;fillColor=none;" vertex="1" parent="1">
          <mxGeometry x="10" y="370" width="220" height="60" as="geometry" />
        </mxCell>
        <mxCell id="Ga-tQYQYkvQy9JPtYiHi-3" value="&lt;span style=&quot;line-height: 107%; background: rgb(252, 252, 252);&quot;&gt;&lt;font face=&quot;Helvetica&quot; style=&quot;font-size: 12px;&quot;&gt;Сотрудник деканата факультета&lt;/font&gt;&lt;font face=&quot;Times New Roman&quot; style=&quot;font-size: 12px;&quot;&gt;&amp;nbsp;&lt;/font&gt;&lt;/span&gt;&lt;div&gt;&lt;span style=&quot;line-height: 107%; background: rgb(252, 252, 252);&quot;&gt;&lt;font style=&quot;&quot;&gt;&lt;font face=&quot;Helvetica&quot; style=&quot;font-size: 12px;&quot;&gt;составляет список&lt;/font&gt;&lt;br&gt;&lt;font style=&quot;font-size: 12px;&quot; face=&quot;Helvetica&quot;&gt;предметов&amp;nbsp;&lt;/font&gt;&lt;/font&gt;&lt;/span&gt;&lt;/div&gt;" style="text;html=1;align=center;verticalAlign=middle;resizable=0;points=[];autosize=1;strokeColor=none;fillColor=none;" vertex="1" parent="1">
          <mxGeometry x="230" y="390" width="210" height="60" as="geometry" />
        </mxCell>
        <mxCell id="Ga-tQYQYkvQy9JPtYiHi-6" value="Согласование деканом" style="shape=ext;rounded=1;html=1;whiteSpace=wrap;" vertex="1" parent="1">
          <mxGeometry x="390" y="475" width="120" height="80" as="geometry" />
        </mxCell>
        <mxCell id="Ga-tQYQYkvQy9JPtYiHi-8" value="" style="rhombus;whiteSpace=wrap;html=1;" vertex="1" parent="1">
          <mxGeometry x="425" y="620" width="50" height="50" as="geometry" />
        </mxCell>
        <mxCell id="Ga-tQYQYkvQy9JPtYiHi-11" value="Да" style="text;html=1;align=center;verticalAlign=middle;resizable=0;points=[];autosize=1;strokeColor=none;fillColor=none;" vertex="1" parent="1">
          <mxGeometry x="380" y="618" width="40" height="30" as="geometry" />
        </mxCell>
        <mxCell id="Ga-tQYQYkvQy9JPtYiHi-12" style="edgeStyle=orthogonalEdgeStyle;rounded=0;html=1;jettySize=auto;orthogonalLoop=1;exitX=1;exitY=0.5;exitDx=0;exitDy=0;entryX=0;entryY=0.5;entryDx=0;entryDy=0;" edge="1" parent="1" source="Ga-tQYQYkvQy9JPtYiHi-8" target="Ga-tQYQYkvQy9JPtYiHi-13">
          <mxGeometry relative="1" as="geometry">
            <mxPoint x="562" y="635" as="sourcePoint" />
            <mxPoint x="650" y="645" as="targetPoint" />
            <Array as="points" />
          </mxGeometry>
        </mxCell>
        <mxCell id="Ga-tQYQYkvQy9JPtYiHi-13" value="&amp;nbsp;Task&amp;nbsp;&lt;div&gt;user&lt;/div&gt;" style="shape=ext;rounded=1;html=1;whiteSpace=wrap;" vertex="1" parent="1">
          <mxGeometry x="600" y="605" width="120" height="80" as="geometry" />
        </mxCell>
        <mxCell id="Ga-tQYQYkvQy9JPtYiHi-14" value="&lt;span style=&quot;line-height: 107%; background: rgb(252, 252, 252);&quot;&gt;&lt;font face=&quot;Helvetica&quot; style=&quot;font-size: 12px;&quot;&gt;Сотрудник деканата факультета&lt;/font&gt;&lt;font face=&quot;Times New Roman&quot; style=&quot;font-size: 12px;&quot;&gt;&amp;nbsp;&lt;/font&gt;&lt;/span&gt;&lt;div&gt;&lt;span style=&quot;background-color: rgb(252, 252, 252);&quot;&gt;корректирует список предметов&lt;/span&gt;&lt;span style=&quot;font-family: Arial, sans-serif; background-color: rgb(252, 252, 252);&quot;&gt;&amp;nbsp;&lt;/span&gt;&lt;br&gt;&lt;/div&gt;" style="text;html=1;align=center;verticalAlign=middle;resizable=0;points=[];autosize=1;strokeColor=none;fillColor=none;" vertex="1" parent="1">
          <mxGeometry x="570" y="690" width="210" height="40" as="geometry" />
        </mxCell>
        <mxCell id="Ga-tQYQYkvQy9JPtYiHi-15" style="edgeStyle=orthogonalEdgeStyle;rounded=0;html=1;jettySize=auto;orthogonalLoop=1;entryX=1;entryY=0.5;entryDx=0;entryDy=0;" edge="1" parent="1" target="Ga-tQYQYkvQy9JPtYiHi-6">
          <mxGeometry relative="1" as="geometry">
            <mxPoint x="660" y="600" as="sourcePoint" />
            <mxPoint x="550" y="600" as="targetPoint" />
            <Array as="points">
              <mxPoint x="660" y="515" />
            </Array>
          </mxGeometry>
        </mxCell>
        <mxCell id="Ga-tQYQYkvQy9JPtYiHi-18" style="edgeStyle=orthogonalEdgeStyle;rounded=0;html=1;jettySize=auto;orthogonalLoop=1;exitX=0;exitY=0.5;exitDx=0;exitDy=0;" edge="1" parent="1" source="Ga-tQYQYkvQy9JPtYiHi-8">
          <mxGeometry relative="1" as="geometry">
            <mxPoint x="485" y="655" as="sourcePoint" />
            <mxPoint x="370" y="645" as="targetPoint" />
            <Array as="points" />
          </mxGeometry>
        </mxCell>
        <mxCell id="Ga-tQYQYkvQy9JPtYiHi-19" value="&amp;nbsp;Task&amp;nbsp;&lt;div&gt;user&lt;/div&gt;" style="shape=ext;rounded=1;html=1;whiteSpace=wrap;" vertex="1" parent="1">
          <mxGeometry x="110" y="600" width="130" height="80" as="geometry" />
        </mxCell>
        <mxCell id="Ga-tQYQYkvQy9JPtYiHi-20" value="&lt;span style=&quot;line-height: 107%; background: rgb(252, 252, 252);&quot;&gt;&lt;font face=&quot;Helvetica&quot; style=&quot;font-size: 12px;&quot;&gt;Сотрудник деканата&lt;/font&gt;&lt;/span&gt;&lt;div&gt;&lt;span style=&quot;line-height: 107%; background: rgb(252, 252, 252);&quot;&gt;&lt;font face=&quot;Helvetica&quot; style=&quot;font-size: 12px;&quot;&gt;&amp;nbsp;факультета&lt;/font&gt;&lt;font face=&quot;Times New Roman&quot; style=&quot;font-size: 12px;&quot;&gt;&amp;nbsp;&lt;/font&gt;&lt;/span&gt;&lt;span style=&quot;background-color: rgb(252, 252, 252);&quot;&gt;распределяет&amp;nbsp;&lt;/span&gt;&lt;/div&gt;&lt;div&gt;&lt;span style=&quot;background-color: rgb(252, 252, 252);&quot;&gt;предметы и часы с учетом&amp;nbsp;&lt;/span&gt;&lt;div&gt;&lt;span style=&quot;background-color: rgb(252, 252, 252);&quot;&gt;пожеланий&amp;nbsp;&lt;/span&gt;&lt;span style=&quot;background-color: rgb(252, 252, 252); font-family: Arial, sans-serif;&quot;&gt;преподавательского&lt;/span&gt;&lt;/div&gt;&lt;div&gt;&lt;span style=&quot;background-color: rgb(252, 252, 252); font-family: Arial, sans-serif;&quot;&gt;&amp;nbsp;состава&amp;nbsp; &amp;nbsp;&lt;/span&gt;&lt;/div&gt;&lt;/div&gt;" style="text;html=1;align=center;verticalAlign=middle;resizable=0;points=[];autosize=1;strokeColor=none;fillColor=none;" vertex="1" parent="1">
          <mxGeometry x="80" y="680" width="200" height="90" as="geometry" />
        </mxCell>
        <mxCell id="Ga-tQYQYkvQy9JPtYiHi-21" value="Нет" style="text;html=1;align=center;verticalAlign=middle;resizable=0;points=[];autosize=1;strokeColor=none;fillColor=none;" vertex="1" parent="1">
          <mxGeometry x="500" y="618" width="40" height="30" as="geometry" />
        </mxCell>
        <mxCell id="Ga-tQYQYkvQy9JPtYiHi-22" style="edgeStyle=orthogonalEdgeStyle;rounded=0;html=1;jettySize=auto;orthogonalLoop=1;entryX=0;entryY=0.5;entryDx=0;entryDy=0;" edge="1" parent="1" target="Ga-tQYQYkvQy9JPtYiHi-24">
          <mxGeometry relative="1" as="geometry">
            <mxPoint x="110" y="645" as="sourcePoint" />
            <mxPoint x="380" y="800" as="targetPoint" />
            <Array as="points">
              <mxPoint x="91" y="645" />
              <mxPoint x="91" y="800" />
            </Array>
          </mxGeometry>
        </mxCell>
        <mxCell id="Ga-tQYQYkvQy9JPtYiHi-24" value="Согласование деканом" style="shape=ext;rounded=1;html=1;whiteSpace=wrap;" vertex="1" parent="1">
          <mxGeometry x="390" y="760" width="120" height="80" as="geometry" />
        </mxCell>
        <mxCell id="Ga-tQYQYkvQy9JPtYiHi-26" value="" style="endArrow=classic;html=1;rounded=0;exitX=0.5;exitY=1;exitDx=0;exitDy=0;" edge="1" parent="1" source="Ga-tQYQYkvQy9JPtYiHi-27">
          <mxGeometry width="50" height="50" relative="1" as="geometry">
            <mxPoint x="350" y="740" as="sourcePoint" />
            <mxPoint x="450" y="880" as="targetPoint" />
          </mxGeometry>
        </mxCell>
        <mxCell id="Ga-tQYQYkvQy9JPtYiHi-27" value="" style="rhombus;whiteSpace=wrap;html=1;" vertex="1" parent="1">
          <mxGeometry x="425" y="870" width="50" height="50" as="geometry" />
        </mxCell>
        <mxCell id="Ga-tQYQYkvQy9JPtYiHi-29" value="" style="endArrow=classic;html=1;rounded=0;exitX=0.5;exitY=1;exitDx=0;exitDy=0;" edge="1" parent="1" source="Ga-tQYQYkvQy9JPtYiHi-27">
          <mxGeometry width="50" height="50" relative="1" as="geometry">
            <mxPoint x="350" y="840" as="sourcePoint" />
            <mxPoint x="450" y="960" as="targetPoint" />
          </mxGeometry>
        </mxCell>
        <mxCell id="Ga-tQYQYkvQy9JPtYiHi-30" value="Да" style="text;html=1;align=center;verticalAlign=middle;resizable=0;points=[];autosize=1;strokeColor=none;fillColor=none;" vertex="1" parent="1">
          <mxGeometry x="410" y="920" width="40" height="30" as="geometry" />
        </mxCell>
        <mxCell id="Ga-tQYQYkvQy9JPtYiHi-33" value="&amp;nbsp;Task&amp;nbsp;&lt;div&gt;user&lt;/div&gt;" style="shape=ext;rounded=1;html=1;whiteSpace=wrap;" vertex="1" parent="1">
          <mxGeometry x="610" y="760" width="120" height="80" as="geometry" />
        </mxCell>
        <mxCell id="Ga-tQYQYkvQy9JPtYiHi-34" value="" style="shape=ext;rounded=1;html=1;whiteSpace=wrap;" vertex="1" parent="1">
          <mxGeometry x="300" y="600" width="70" height="80" as="geometry" />
        </mxCell>
        <mxCell id="Ga-tQYQYkvQy9JPtYiHi-35" style="edgeStyle=orthogonalEdgeStyle;rounded=0;html=1;jettySize=auto;orthogonalLoop=1;exitX=0;exitY=0.5;exitDx=0;exitDy=0;entryX=1;entryY=0.5;entryDx=0;entryDy=0;" edge="1" parent="1" source="Ga-tQYQYkvQy9JPtYiHi-34" target="Ga-tQYQYkvQy9JPtYiHi-19">
          <mxGeometry relative="1" as="geometry">
            <mxPoint x="435" y="655" as="sourcePoint" />
            <mxPoint x="380" y="655" as="targetPoint" />
            <Array as="points" />
          </mxGeometry>
        </mxCell>
        <mxCell id="Ga-tQYQYkvQy9JPtYiHi-36" value="" style="rounded=0;whiteSpace=wrap;html=1;" vertex="1" parent="1">
          <mxGeometry x="320" y="611.87" width="30" height="15" as="geometry" />
        </mxCell>
        <mxCell id="Ga-tQYQYkvQy9JPtYiHi-37" value="" style="triangle;whiteSpace=wrap;html=1;rotation=90;direction=east;" vertex="1" parent="1">
          <mxGeometry x="328.75" y="605" width="12.5" height="28.75" as="geometry" />
        </mxCell>
        <mxCell id="Ga-tQYQYkvQy9JPtYiHi-38" value="Направление&lt;div&gt;преподавателям&lt;/div&gt;" style="text;html=1;align=center;verticalAlign=middle;resizable=0;points=[];autosize=1;strokeColor=none;fillColor=none;" vertex="1" parent="1">
          <mxGeometry x="270" y="683" width="120" height="40" as="geometry" />
        </mxCell>
        <mxCell id="Ga-tQYQYkvQy9JPtYiHi-40" value="" style="endArrow=classic;html=1;rounded=0;exitX=1;exitY=0.5;exitDx=0;exitDy=0;entryX=0;entryY=0.5;entryDx=0;entryDy=0;" edge="1" parent="1" source="Ga-tQYQYkvQy9JPtYiHi-27" target="Ga-tQYQYkvQy9JPtYiHi-33">
          <mxGeometry width="50" height="50" relative="1" as="geometry">
            <mxPoint x="480" y="900" as="sourcePoint" />
            <mxPoint x="560" y="800" as="targetPoint" />
            <Array as="points">
              <mxPoint x="560" y="895" />
              <mxPoint x="560" y="800" />
            </Array>
          </mxGeometry>
        </mxCell>
        <mxCell id="Ga-tQYQYkvQy9JPtYiHi-41" value="&lt;span style=&quot;line-height: 107%; background: rgb(252, 252, 252);&quot;&gt;&lt;font face=&quot;Helvetica&quot; style=&quot;font-size: 12px;&quot;&gt;Сотрудник деканата факультета&lt;/font&gt;&lt;font face=&quot;Times New Roman&quot; style=&quot;font-size: 12px;&quot;&gt;&amp;nbsp;&lt;/font&gt;&lt;/span&gt;&lt;div&gt;&lt;span style=&quot;background-color: rgb(252, 252, 252);&quot;&gt;корректирует распределение&lt;/span&gt;&lt;/div&gt;&lt;div&gt;&lt;span style=&quot;background-color: rgb(252, 252, 252);&quot;&gt;&amp;nbsp;часов и предметов&lt;/span&gt;&lt;br&gt;&lt;/div&gt;" style="text;html=1;align=center;verticalAlign=middle;resizable=0;points=[];autosize=1;strokeColor=none;fillColor=none;" vertex="1" parent="1">
          <mxGeometry x="570" y="840" width="210" height="60" as="geometry" />
        </mxCell>
        <mxCell id="Ga-tQYQYkvQy9JPtYiHi-42" value="" style="endArrow=classic;html=1;rounded=0;exitX=0.5;exitY=0;exitDx=0;exitDy=0;entryX=1;entryY=0.75;entryDx=0;entryDy=0;" edge="1" parent="1" source="Ga-tQYQYkvQy9JPtYiHi-33" target="Ga-tQYQYkvQy9JPtYiHi-34">
          <mxGeometry width="50" height="50" relative="1" as="geometry">
            <mxPoint x="490" y="740" as="sourcePoint" />
            <mxPoint x="540" y="690" as="targetPoint" />
            <Array as="points">
              <mxPoint x="670" y="740" />
              <mxPoint x="610" y="740" />
            </Array>
          </mxGeometry>
        </mxCell>
        <mxCell id="Ga-tQYQYkvQy9JPtYiHi-43" value="" style="endArrow=none;html=1;rounded=0;entryX=0.5;entryY=1;entryDx=0;entryDy=0;exitX=0.5;exitY=0;exitDx=0;exitDy=0;" edge="1" parent="1" source="Ga-tQYQYkvQy9JPtYiHi-8" target="Ga-tQYQYkvQy9JPtYiHi-6">
          <mxGeometry width="50" height="50" relative="1" as="geometry">
            <mxPoint x="490" y="640" as="sourcePoint" />
            <mxPoint x="540" y="590" as="targetPoint" />
          </mxGeometry>
        </mxCell>
        <mxCell id="Ga-tQYQYkvQy9JPtYiHi-45" value="" style="endArrow=none;html=1;rounded=0;exitX=0.5;exitY=1;exitDx=0;exitDy=0;entryX=0.5;entryY=0;entryDx=0;entryDy=0;" edge="1" parent="1" source="Ga-tQYQYkvQy9JPtYiHi-24" target="Ga-tQYQYkvQy9JPtYiHi-27">
          <mxGeometry width="50" height="50" relative="1" as="geometry">
            <mxPoint x="490" y="740" as="sourcePoint" />
            <mxPoint x="540" y="690" as="targetPoint" />
          </mxGeometry>
        </mxCell>
        <mxCell id="Ga-tQYQYkvQy9JPtYiHi-46" value="" style="shape=mxgraph.bpmn.shape;html=1;verticalLabelPosition=bottom;labelBackgroundColor=#ffffff;verticalAlign=top;perimeter=ellipsePerimeter;outline=standard;symbol=general;strokeColor=#FF0000;" vertex="1" parent="1">
          <mxGeometry x="425" y="960" width="50" height="50" as="geometry" />
        </mxCell>
        <mxCell id="Ga-tQYQYkvQy9JPtYiHi-47" value="Нет" style="text;html=1;align=center;verticalAlign=middle;resizable=0;points=[];autosize=1;strokeColor=none;fillColor=none;" vertex="1" parent="1">
          <mxGeometry x="490" y="868" width="40" height="30" as="geometry" />
        </mxCell>
        <mxCell id="Ga-tQYQYkvQy9JPtYiHi-48" value="Согласованная&amp;nbsp;&lt;div&gt;программа&lt;/div&gt;" style="text;html=1;align=center;verticalAlign=middle;resizable=0;points=[];autosize=1;strokeColor=none;fillColor=none;" vertex="1" parent="1">
          <mxGeometry x="490" y="970" width="110" height="40" as="geometry" />
        </mxCell>
        <mxCell id="Ga-tQYQYkvQy9JPtYiHi-49" value="" style="endArrow=classic;html=1;rounded=0;exitX=1;exitY=0.5;exitDx=0;exitDy=0;entryX=0.5;entryY=0;entryDx=0;entryDy=0;" edge="1" parent="1" source="7a84cebc1def654-2" target="Ga-tQYQYkvQy9JPtYiHi-6">
          <mxGeometry width="50" height="50" relative="1" as="geometry">
            <mxPoint x="490" y="480" as="sourcePoint" />
            <mxPoint x="540" y="430" as="targetPoint" />
            <Array as="points">
              <mxPoint x="450" y="340" />
            </Array>
          </mxGeometry>
        </mxCell>
      </root>
    </mxGraphModel>
  </diagram>
</mxfile>
